<svg width="45" height="36" viewBox="0 0 45 36" fill="none" xmlns="http://www.w3.org/2000/svg">
<path d="M32 4H0V36H32V4Z" fill="white"/>
<path fill-rule="evenodd" clip-rule="evenodd" d="M13.3055 6.32124C13.0915 5.99318 12.6421 5.90054 12.3212 6.12162C11.9931 6.33557 11.9004 6.78488 12.1215 7.10581L13.4838 9.15263L15.5448 16.8835C16.0725 18.8732 17.8839 20.2639 19.945 20.2639H29.1166C29.5088 20.2639 29.8298 19.943 29.8298 19.5507C29.8298 19.1585 29.5088 18.8376 29.1166 18.8376H19.945C18.8253 18.8376 17.8128 18.2385 17.2565 17.3114L29.3091 16.0847C30.2434 15.992 30.9993 15.3073 31.1919 14.3945L31.955 10.7144C32.2332 9.38794 31.2133 8.13989 29.8583 8.13989H14.525L13.3055 6.32124ZM16.7643 15.9278L15.067 9.56624H29.8583C30.3147 9.56624 30.6499 9.97985 30.5572 10.422L29.7941 14.102C29.7299 14.4087 29.4803 14.637 29.1665 14.6655L16.7643 15.9278Z" fill="black"/>
<path fill-rule="evenodd" clip-rule="evenodd" d="M16.2794 23.8297C16.2794 22.6458 17.235 21.6902 18.4189 21.6902C19.6028 21.6902 20.5584 22.6458 20.5584 23.8297C20.5584 25.0136 19.6028 25.9693 18.4189 25.9693C17.235 25.9693 16.2794 25.0136 16.2794 23.8297ZM18.4189 23.1165C18.0266 23.1165 17.7057 23.4375 17.7057 23.8297C17.7057 24.222 18.0266 24.5429 18.4189 24.5429C18.8111 24.5429 19.1321 24.222 19.1321 23.8297C19.1321 23.4375 18.8111 23.1165 18.4189 23.1165Z" fill="black"/>
<path fill-rule="evenodd" clip-rule="evenodd" d="M25.5507 23.8297C25.5507 22.6458 26.5063 21.6902 27.6902 21.6902C28.8741 21.6902 29.8298 22.6458 29.8298 23.8297C29.8298 25.0136 28.8741 25.9693 27.6902 25.9693C26.5063 25.9693 25.5507 25.0136 25.5507 23.8297ZM27.6902 23.1165C27.298 23.1165 26.977 23.4375 26.977 23.8297C26.977 24.222 27.298 24.5429 27.6902 24.5429C28.0825 24.5429 28.4034 24.222 28.4034 23.8297C28.4034 23.4375 28.0825 23.1165 27.6902 23.1165Z" fill="black"/>
<circle cx="36" cy="9" r="9" fill="#6CB71D"/>
<path d="M34.8457 7.9082H35.8066C36.0527 7.9082 36.2539 7.86523 36.4102 7.7793C36.5703 7.68945 36.6895 7.56445 36.7676 7.4043C36.8457 7.24023 36.8848 7.04688 36.8848 6.82422C36.8848 6.65234 36.8477 6.49414 36.7734 6.34961C36.7031 6.20508 36.5938 6.08984 36.4453 6.00391C36.2969 5.91406 36.1074 5.86914 35.877 5.86914C35.7207 5.86914 35.5684 5.90234 35.4199 5.96875C35.2715 6.03125 35.1484 6.12109 35.0508 6.23828C34.957 6.35547 34.9102 6.49805 34.9102 6.66602H32.9297C32.9297 6.18164 33.0625 5.76758 33.3281 5.42383C33.5977 5.07617 33.9512 4.81055 34.3887 4.62695C34.8301 4.43945 35.3047 4.3457 35.8125 4.3457C36.418 4.3457 36.9492 4.43945 37.4062 4.62695C37.8633 4.81055 38.2188 5.08398 38.4727 5.44727C38.7305 5.80664 38.8594 6.25195 38.8594 6.7832C38.8594 7.07617 38.791 7.35156 38.6543 7.60938C38.5176 7.86719 38.3262 8.09375 38.0801 8.28906C37.834 8.48438 37.5449 8.63867 37.2129 8.75195C36.8848 8.86133 36.5254 8.91602 36.1348 8.91602H34.8457V7.9082ZM34.8457 9.37891V8.39453H36.1348C36.5605 8.39453 36.9492 8.44336 37.3008 8.54102C37.6523 8.63477 37.9551 8.77539 38.209 8.96289C38.4629 9.15039 38.6582 9.38281 38.7949 9.66016C38.9316 9.93359 39 10.248 39 10.6035C39 11.002 38.9199 11.3574 38.7598 11.6699C38.5996 11.9824 38.375 12.2461 38.0859 12.4609C37.7969 12.6758 37.459 12.8398 37.0723 12.9531C36.6855 13.0625 36.2656 13.1172 35.8125 13.1172C35.457 13.1172 35.1016 13.0703 34.7461 12.9766C34.3906 12.8789 34.0664 12.7305 33.7734 12.5312C33.4805 12.3281 33.2441 12.0703 33.0645 11.7578C32.8887 11.4414 32.8008 11.0645 32.8008 10.627H34.7812C34.7812 10.8066 34.8301 10.9707 34.9277 11.1191C35.0293 11.2637 35.1641 11.3789 35.332 11.4648C35.5 11.5508 35.6816 11.5938 35.877 11.5938C36.1191 11.5938 36.3242 11.5488 36.4922 11.459C36.6641 11.3652 36.7949 11.2402 36.8848 11.084C36.9746 10.9277 37.0195 10.7539 37.0195 10.5625C37.0195 10.2734 36.9707 10.043 36.873 9.87109C36.7793 9.69922 36.6406 9.57422 36.457 9.49609C36.2773 9.41797 36.0605 9.37891 35.8066 9.37891H34.8457Z" fill="white"/>
</svg>
