<svg width="16" height="16" viewBox="0 0 16 16" fill="none" xmlns="http://www.w3.org/2000/svg">
<path d="M7.63426 9.01148C7.50398 8.9029 7.42856 8.74289 7.42856 8.57146V3.42861C7.42856 3.11432 7.68456 2.85718 7.99999 2.85718C8.31542 2.85718 8.57142 3.11432 8.57142 3.42861V8.30291L11.7943 10.9886C12.0366 11.1943 12.0697 11.5543 11.8674 11.7943C11.6657 12.0343 11.3051 12.0686 11.0628 11.8686L7.63426 9.01148Z" fill="black"/>
<path fill-rule="evenodd" clip-rule="evenodd" d="M8 0C3.58171 0 0 3.58286 0 8C0 12.4171 3.58171 16 8 16C12.4183 16 16 12.4171 16 8C16 3.58286 12.4183 0 8 0ZM1.14286 8C1.14286 4.21143 4.21314 1.14286 8 1.14286C11.7869 1.14286 14.8571 4.21143 14.8571 8C14.8571 11.7886 11.7869 14.8571 8 14.8571C4.21314 14.8571 1.14286 11.7886 1.14286 8Z" fill="black"/>
</svg>
