<svg width="13" height="17" viewBox="0 0 13 17" fill="none" xmlns="http://www.w3.org/2000/svg">
<path fill-rule="evenodd" clip-rule="evenodd" d="M6.1645 4.14819C4.61769 4.14819 3.3623 5.39192 3.3623 6.92437C3.3623 8.45683 4.61769 9.70056 6.1645 9.70056C7.71131 9.70056 8.96669 8.45683 8.96669 6.92437C8.96669 5.39192 7.71131 4.14819 6.1645 4.14819ZM4.48318 6.92437C4.48318 6.00268 5.23417 5.25867 6.1645 5.25867C7.09483 5.25867 7.84582 6.00268 7.84582 6.92437C7.84582 7.84607 7.09483 8.59008 6.1645 8.59008C5.23417 8.59008 4.48318 7.84607 4.48318 6.92437Z" fill="black"/>
<path fill-rule="evenodd" clip-rule="evenodd" d="M5.81736 16.2468C5.81736 16.2468 5.81736 16.2468 6.16483 15.8082L5.81736 16.2468C6.01912 16.4023 6.31054 16.4023 6.5123 16.2468L6.16483 15.8082C6.5123 16.2468 6.5123 16.2468 6.5123 16.2468V16.2413H6.51791L6.52913 16.2301C6.54594 16.219 6.56273 16.208 6.57955 16.1857C6.62438 16.1524 6.68601 16.1024 6.77008 16.0358C6.927 15.9026 7.1512 15.7082 7.42021 15.4583C7.95823 14.9642 8.68121 14.2535 9.39857 13.3873C10.8221 11.6883 12.3297 9.2952 12.3297 6.75221C12.3297 3.45966 9.55548 0.816772 6.16483 0.816772C2.77417 0.816772 0 3.45966 0 6.75221C0 9.2952 1.50757 11.6883 2.93108 13.3873C3.64845 14.2535 4.37143 14.9642 4.90945 15.4583C5.17846 15.7082 5.40266 15.9026 5.55958 16.0358C5.64364 16.1024 5.70527 16.1524 5.75011 16.1857C5.76692 16.208 5.78372 16.219 5.80053 16.2301L5.81175 16.2413H5.81736V16.2468ZM1.12088 6.75221C1.12088 4.10374 3.36263 1.92724 6.16483 1.92724C8.96702 1.92724 11.2088 4.10374 11.2088 6.75221C11.2088 8.88987 9.91415 11.0276 8.53547 12.6822C7.85174 13.4984 7.17362 14.1758 6.65802 14.6422C6.46747 14.8198 6.29933 14.9697 6.16483 15.0863C6.03032 14.9697 5.86219 14.8198 5.67164 14.6422C5.15604 14.1758 4.47792 13.4984 3.79418 12.6822C2.4155 11.0276 1.12088 8.88987 1.12088 6.75221Z" fill="black"/>
</svg>
