<svg width="16" height="16" viewBox="0 0 16 16" fill="none" xmlns="http://www.w3.org/2000/svg">
<path fill-rule="evenodd" clip-rule="evenodd" d="M11.6499 14.536C12.2404 14.5754 12.7308 14.4177 13.132 14.0294L14.8277 12.3806C14.8382 12.3694 14.8416 12.3637 14.8422 12.3581L12.4181 10.0002C12.4123 10.0002 12.4025 10.0059 12.3921 10.0171L10.6963 11.6603C10.5875 11.7672 10.4393 11.8292 10.2858 11.8292L10.287 11.2664C10.2858 11.8292 10.2841 11.8292 10.2841 11.8292H10.2824H10.2789H10.2713H10.2569C10.2465 11.8292 10.2355 11.8235 10.2239 11.8235C10.2007 11.8235 10.1747 11.8179 10.1457 11.8123C10.0884 11.8066 10.0195 11.7898 9.93788 11.7617C9.77461 11.7111 9.55692 11.6154 9.2715 11.4522C8.70238 11.1201 7.83917 10.4954 6.57531 9.28554C5.30913 8.08127 4.65894 7.23721 4.32372 6.66884C4.15525 6.38747 4.06207 6.16803 4.0117 5.99921C3.98622 5.91479 3.97175 5.84719 3.96364 5.78529C3.95959 5.75715 3.95784 5.7347 3.95668 5.70657C3.9561 5.69531 3.95551 5.68403 3.95551 5.6784C3.95551 5.67277 3.95611 5.66713 3.95611 5.6615V5.65587V5.65024C3.95611 5.65024 3.95667 5.64463 4.53447 5.67277L3.95668 5.6446C3.96363 5.50955 4.02385 5.37454 4.12516 5.27888L5.8215 3.62994C5.83192 3.61868 5.83481 3.60754 5.83539 3.60191L3.41129 1.24391C3.40608 1.24953 3.39624 1.24955 3.38581 1.26081L1.68948 2.90961C1.2871 3.2979 1.12904 3.77626 1.16204 4.34463C1.19562 4.93551 1.4359 5.62211 1.84001 6.36493C2.64823 7.84495 4.02327 9.38685 5.23329 10.5686C6.43636 11.7335 8.0308 13.0785 9.56214 13.872C10.3287 14.2659 11.0391 14.5022 11.6499 14.536ZM5.1835 5.84162L6.64015 4.42349C7.08479 3.99018 7.13051 3.26981 6.6604 2.81399L4.22474 0.444855C3.75405 -0.0109681 3.01123 0.0340679 2.56717 0.461753L0.870831 2.11056C0.19982 2.76334 -0.0421589 3.56811 0.00589445 4.4066C0.052211 5.2282 0.372954 6.0779 0.817013 6.88825C1.70571 8.52021 3.17568 10.1578 4.41464 11.362C5.64608 12.5607 7.33662 13.9902 9.01849 14.8624C9.85855 15.2957 10.7374 15.6108 11.5815 15.6615C12.4465 15.7121 13.2785 15.4814 13.9506 14.8286L15.6464 13.1797C16.091 12.7464 16.1368 12.0261 15.6667 11.5647L13.231 9.20119C12.7603 8.73974 12.0181 8.78477 11.5734 9.21809L10.1283 10.6249C10.0577 10.5912 9.96972 10.5462 9.86261 10.4843C9.40118 10.2141 8.61148 9.657 7.38699 8.48649C6.16539 7.31598 5.59225 6.55629 5.32651 6.10609C5.26109 5.99917 5.21534 5.90915 5.1835 5.84162Z" fill="black"/>
</svg>
